%
M48
M72
T01C0.0120
T02C0.0120
T03C0.0400
T04C0.0512
T05C0.1260
%
T01
X10869Y10167
X9215Y10600
X13625Y14261
X15436Y16309
X15672Y18238
X13349Y19143
X9137Y15403
X9137Y15108
X8841Y15108
X8841Y15403
X15200Y12214
X15928Y10088
X15928Y9793
X16223Y9793
X16223Y10088
X18349Y11781
X17719Y12726
X19924Y14104
X19255Y15167
X19924Y15383
X20672Y16033
X21105Y16427
X21105Y17057
X21420Y17057
X22168Y17057
X22719Y17214
X23231Y18120
X23605Y18198
X23467Y18671
X22365Y18946
X23979Y19891
X24708Y19734
X25357Y19734
X24924Y18907
X24609Y18907
X25711Y18671
X25908Y18907
X26735Y18671
X27365Y19143
X27719Y18986
X27719Y18671
X26932Y19616
X26341Y19734
X26223Y20797
X26223Y22450
X25948Y22687
X26223Y22923
X24452Y23710
X23743Y23317
X23743Y22687
X23074Y22332
X19727Y21506
X18586Y21387
X18192Y22962
X24058Y17332
X25062Y17372
X25751Y17667
X27857Y16131
X27837Y15443
X28290Y15580
X28900Y15364
X28900Y15836
X28900Y16151
X28900Y16506
X28900Y16899
X28900Y17332
X28034Y17372
X29058Y18474
X29530Y18317
X30337Y17903
X29885Y17096
X29885Y16781
X29885Y16466
X30121Y15600
X29885Y15324
X30278Y15246
X29885Y14813
X29885Y14498
X28900Y14537
X28074Y14852
X27601Y14104
X27798Y13513
X27424Y13454
X27424Y12824
X28389Y11348
X28900Y11565
X29353Y12391
X31026Y13080
X31026Y14065
X31026Y14380
X31066Y14734
X31499Y15167
X31814Y15167
X32050Y14970
X32877Y14931
X33231Y14261
X34137Y14734
X35082Y14734
X35416Y13041
X35928Y12588
X35259Y11092
X35239Y10246
X35082Y9439
X34865Y9006
X34432Y8859
X34137Y9207
X33428Y8513
X33192Y8710
X33113Y9025
X32503Y8454
X32267Y8257
X31302Y9360
X31853Y9773
X32463Y10226
X33507Y10757
X34137Y10521
X32306Y11260
X30810Y10226
X30574Y10974
X32286Y12844
X31263Y15836
X31145Y16466
X31145Y16781
X30889Y18828
X30397Y18986
X30141Y19242
X29452Y19616
X28999Y19242
X28822Y20561
X32818Y20639
X33093Y20639
X33093Y20915
X32818Y20915
X33625Y21624
X33310Y21742
X33940Y23356
X34609Y24222
X35357Y24498
X35593Y24261
X36263Y22962
X36499Y19931
X35652Y19950
X35436Y18494
X36637Y18494
X38231Y18317
X36971Y15994
X33034Y18848
X32759Y18848
X32759Y19124
X33034Y19124
X24078Y15383
X24078Y13454
X24294Y12765
X23507Y11230
X22227Y11210
X21341Y11624
X20830Y11781
X20200Y12569
X21893Y13317
X19570Y10876
X20278Y10561
X20436Y9045
X20731Y9045
X20731Y8750
X20436Y8750
X21656Y7569
X21105Y7017
X23074Y8120
X22208Y9478
X24452Y9813
X27326Y9380
X27837Y9498
X28192Y9517
X29452Y8750
X29215Y7096
X29452Y6072
X30456Y5757
X30731Y5915
X31420Y6072
X31774Y6446
X32149Y6092
X32877Y6880
X33349Y6525
X33645Y6860
X34235Y6663
X34334Y6348
X35554Y6663
X35830Y6092
X34649Y8297
X34176Y8297
X33586Y8218
X31361Y6820
X30613Y6761
X36656Y10541
X21774Y16033
T02
X22641Y16781
X23822Y16112
X24550Y16053
X25062Y16053
X26460Y16387
X26460Y17135
X26538Y17608
X26853Y17628
X27424Y17332
X27424Y16466
X28586Y17687
X28940Y18041
X29432Y19950
X30082Y19950
X28684Y21958
X27936Y23257
X25377Y23257
X25101Y24065
X24688Y24990
X23625Y26053
X22739Y24950
X22739Y24202
X23625Y23809
X21184Y24124
X21184Y24360
X20849Y24852
X20219Y25777
X20613Y26092
X20475Y26820
X19649Y26683
X17129Y24439
X15908Y24655
X16617Y26053
X14806Y23513
X15042Y23238
X14688Y21820
X14609Y21427
X14727Y20954
X13625Y20364
X13113Y22923
X19452Y23513
X19649Y23907
X24491Y19950
X24393Y19163
X22975Y19163
X22975Y18612
X25318Y17608
X22601Y14813
X22798Y13317
X22542Y12785
X22542Y11781
X22975Y10344
X23369Y9911
X22483Y8789
X22739Y7194
X22404Y6761
X24767Y5777
X27778Y6525
X27778Y7194
X28684Y6525
X29353Y7431
X29629Y7194
X30160Y7194
X29274Y7943
X28664Y8041
X28271Y8041
X29393Y9084
X29038Y9399
X28782Y9143
X28172Y9832
X28389Y10088
X27306Y9832
X26656Y11427
X26361Y11506
X25908Y11348
X25711Y11624
X25042Y11565
X24767Y11269
X24826Y10344
X27089Y11545
X27523Y11624
X27995Y12608
X28467Y12608
X27208Y13238
X25062Y13238
X24550Y13671
X25082Y12608
X20652Y12785
X13625Y17450
X12759Y17372
X10042Y17411
X12759Y15285
X12759Y13080
X12759Y10994
X12936Y6998
X12503Y6939
X15180Y6919
X16538Y6761
X9668Y6368
X8881Y6053
X8664Y5639
X8802Y6919
X29845Y8789
X29786Y9399
X30416Y9360
X30967Y9301
X31302Y8907
X31400Y8553
X31420Y8238
X31952Y8572
X32902Y9390
X33198Y9324
X32936Y10305
X32621Y11013
X33290Y11013
X33231Y11348
X32956Y12175
X33369Y12431
X35259Y11998
X36017Y11725
X36686Y11174
X36007Y10383
X36223Y9950
X35495Y10462
X38222Y10308
X38694Y10189
X39038Y10836
X38723Y11880
X36164Y13474
X37011Y14694
X37798Y15128
X37463Y15974
X36125Y15462
X36066Y15128
X35672Y16250
X35908Y16466
X35200Y16250
X35121Y17352
X35101Y17687
X35908Y19439
X32818Y21958
X32818Y22588
X35141Y24222
X38723Y14340
X36184Y6801
X36322Y6309
X36204Y5659
X36656Y5679
X35219Y5639
X34747Y6092
X35062Y6545
X34137Y5895
X33586Y6072
X33802Y6466
X33054Y6171
X32562Y6348
X32267Y6624
X32089Y6880
X31125Y6171
T03
X17180Y6439
X17180Y7439
X16180Y7439
X15180Y7439
X14180Y7439
X13180Y7439
X12180Y7439
X11180Y7439
X10180Y7439
X9180Y7439
X8180Y7439
X8180Y6439
X9180Y6439
X10180Y6439
X11180Y6439
X12180Y6439
X13180Y6439
X14180Y6439
X15180Y6439
X16180Y6439
X37798Y20265
X37798Y21265
X37798Y22265
X37798Y23265
X37798Y24265
X37798Y25265
X30137Y25297
X30137Y26297
X29137Y26297
X28137Y26297
X28137Y25297
X29137Y25297
X27137Y25297
X26137Y25297
X26137Y26297
X27137Y26297
X25137Y26297
X24137Y26297
X24137Y25297
X25137Y25297
X23137Y25297
X22137Y25297
X22137Y26297
X23137Y26297
X21137Y26297
X20137Y26297
X20137Y25297
X21137Y25297
X19137Y25297
X18137Y25297
X18137Y26297
X19137Y26297
X17137Y26297
X16137Y26297
X16137Y25297
X17137Y25297
X15137Y25297
X14137Y25297
X14137Y26297
X15137Y26297
X13137Y26297
X12137Y26297
X12137Y25297
X13137Y25297
X11137Y25297
X10137Y25297
X10137Y26297
X11137Y26297
X9137Y26297
X8137Y26297
X8137Y25297
X9137Y25297
T04
X23960Y8277
X23723Y6348
X29904Y6348
X29668Y8277
T05
X1814Y3238
X1952Y29616
X37739Y29694
X38152Y3120
M30
