G75*
G70*
%OFA0B0*%
%FSLAX24Y24*%
%IPPOS*%
%LPD*%
%AMOC8*
5,1,8,0,0,1.08239X$1,22.5*
%
%ADD10C,0.0000*%
%ADD11C,0.1300*%
%ADD12OC8,0.0640*%
%ADD13R,0.0820X0.0250*%
%ADD14R,0.0316X0.0394*%
%ADD15R,0.1001X0.0485*%
%ADD16R,0.0434X0.0434*%
%ADD17R,0.1064X0.0985*%
%ADD18R,0.0131X0.0296*%
%ADD19R,0.0217X0.0249*%
%ADD20R,0.0158X0.0788*%
%ADD21C,0.0552*%
%ADD22R,0.0394X0.0316*%
%ADD23R,0.0158X0.0512*%
%ADD24C,0.0640*%
D10*
X001853Y001821D02*
X001923Y001823D01*
X001993Y001829D01*
X002063Y001838D01*
X002132Y001851D01*
X002201Y001868D01*
X002268Y001889D01*
X002334Y001913D01*
X002398Y001941D01*
X002461Y001972D01*
X002523Y002007D01*
X002582Y002045D01*
X002639Y002086D01*
X002694Y002130D01*
X002746Y002177D01*
X002796Y002227D01*
X002843Y002279D01*
X002887Y002334D01*
X002928Y002391D01*
X002966Y002450D01*
X003001Y002512D01*
X003032Y002575D01*
X003060Y002639D01*
X003084Y002705D01*
X003105Y002772D01*
X003122Y002841D01*
X003135Y002910D01*
X003144Y002980D01*
X003150Y003050D01*
X003152Y003120D01*
X003152Y005403D01*
X036774Y005403D01*
X036774Y003238D01*
X036776Y003166D01*
X036782Y003094D01*
X036791Y003022D01*
X036804Y002951D01*
X036821Y002881D01*
X036841Y002812D01*
X036866Y002744D01*
X036893Y002678D01*
X036924Y002612D01*
X036959Y002549D01*
X036996Y002487D01*
X037037Y002428D01*
X037081Y002371D01*
X037128Y002316D01*
X037178Y002264D01*
X037230Y002214D01*
X037285Y002167D01*
X037342Y002123D01*
X037401Y002082D01*
X037463Y002045D01*
X037526Y002010D01*
X037592Y001979D01*
X037658Y001952D01*
X037726Y001927D01*
X037795Y001907D01*
X037865Y001890D01*
X037936Y001877D01*
X038008Y001868D01*
X038080Y001862D01*
X038152Y001860D01*
X037522Y003120D02*
X037524Y003170D01*
X037530Y003220D01*
X037540Y003269D01*
X037554Y003317D01*
X037571Y003364D01*
X037592Y003409D01*
X037617Y003453D01*
X037645Y003494D01*
X037677Y003533D01*
X037711Y003570D01*
X037748Y003604D01*
X037788Y003634D01*
X037830Y003661D01*
X037874Y003685D01*
X037920Y003706D01*
X037967Y003722D01*
X038015Y003735D01*
X038065Y003744D01*
X038114Y003749D01*
X038165Y003750D01*
X038215Y003747D01*
X038264Y003740D01*
X038313Y003729D01*
X038361Y003714D01*
X038407Y003696D01*
X038452Y003674D01*
X038495Y003648D01*
X038536Y003619D01*
X038575Y003587D01*
X038611Y003552D01*
X038643Y003514D01*
X038673Y003474D01*
X038700Y003431D01*
X038723Y003387D01*
X038742Y003341D01*
X038758Y003293D01*
X038770Y003244D01*
X038778Y003195D01*
X038782Y003145D01*
X038782Y003095D01*
X038778Y003045D01*
X038770Y002996D01*
X038758Y002947D01*
X038742Y002899D01*
X038723Y002853D01*
X038700Y002809D01*
X038673Y002766D01*
X038643Y002726D01*
X038611Y002688D01*
X038575Y002653D01*
X038536Y002621D01*
X038495Y002592D01*
X038452Y002566D01*
X038407Y002544D01*
X038361Y002526D01*
X038313Y002511D01*
X038264Y002500D01*
X038215Y002493D01*
X038165Y002490D01*
X038114Y002491D01*
X038065Y002496D01*
X038015Y002505D01*
X037967Y002518D01*
X037920Y002534D01*
X037874Y002555D01*
X037830Y002579D01*
X037788Y002606D01*
X037748Y002636D01*
X037711Y002670D01*
X037677Y002707D01*
X037645Y002746D01*
X037617Y002787D01*
X037592Y002831D01*
X037571Y002876D01*
X037554Y002923D01*
X037540Y002971D01*
X037530Y003020D01*
X037524Y003070D01*
X037522Y003120D01*
X038152Y001860D02*
X038222Y001862D01*
X038292Y001868D01*
X038362Y001877D01*
X038431Y001890D01*
X038500Y001907D01*
X038567Y001928D01*
X038633Y001952D01*
X038697Y001980D01*
X038760Y002011D01*
X038822Y002046D01*
X038881Y002084D01*
X038938Y002125D01*
X038993Y002169D01*
X039045Y002216D01*
X039095Y002266D01*
X039142Y002318D01*
X039186Y002373D01*
X039227Y002430D01*
X039265Y002489D01*
X039300Y002551D01*
X039331Y002614D01*
X039359Y002678D01*
X039383Y002744D01*
X039404Y002811D01*
X039421Y002880D01*
X039434Y002949D01*
X039443Y003019D01*
X039449Y003089D01*
X039451Y003159D01*
X039452Y003159D02*
X039452Y005403D01*
X039649Y005403D01*
X039550Y027332D01*
X039038Y027332D01*
X039038Y029931D01*
X037109Y029694D02*
X037111Y029744D01*
X037117Y029794D01*
X037127Y029843D01*
X037141Y029891D01*
X037158Y029938D01*
X037179Y029983D01*
X037204Y030027D01*
X037232Y030068D01*
X037264Y030107D01*
X037298Y030144D01*
X037335Y030178D01*
X037375Y030208D01*
X037417Y030235D01*
X037461Y030259D01*
X037507Y030280D01*
X037554Y030296D01*
X037602Y030309D01*
X037652Y030318D01*
X037701Y030323D01*
X037752Y030324D01*
X037802Y030321D01*
X037851Y030314D01*
X037900Y030303D01*
X037948Y030288D01*
X037994Y030270D01*
X038039Y030248D01*
X038082Y030222D01*
X038123Y030193D01*
X038162Y030161D01*
X038198Y030126D01*
X038230Y030088D01*
X038260Y030048D01*
X038287Y030005D01*
X038310Y029961D01*
X038329Y029915D01*
X038345Y029867D01*
X038357Y029818D01*
X038365Y029769D01*
X038369Y029719D01*
X038369Y029669D01*
X038365Y029619D01*
X038357Y029570D01*
X038345Y029521D01*
X038329Y029473D01*
X038310Y029427D01*
X038287Y029383D01*
X038260Y029340D01*
X038230Y029300D01*
X038198Y029262D01*
X038162Y029227D01*
X038123Y029195D01*
X038082Y029166D01*
X038039Y029140D01*
X037994Y029118D01*
X037948Y029100D01*
X037900Y029085D01*
X037851Y029074D01*
X037802Y029067D01*
X037752Y029064D01*
X037701Y029065D01*
X037652Y029070D01*
X037602Y029079D01*
X037554Y029092D01*
X037507Y029108D01*
X037461Y029129D01*
X037417Y029153D01*
X037375Y029180D01*
X037335Y029210D01*
X037298Y029244D01*
X037264Y029281D01*
X037232Y029320D01*
X037204Y029361D01*
X037179Y029405D01*
X037158Y029450D01*
X037141Y029497D01*
X037127Y029545D01*
X037117Y029594D01*
X037111Y029644D01*
X037109Y029694D01*
X036361Y030009D02*
X036361Y027332D01*
X003290Y027293D01*
X003290Y029891D01*
X001322Y029616D02*
X001324Y029666D01*
X001330Y029716D01*
X001340Y029765D01*
X001354Y029813D01*
X001371Y029860D01*
X001392Y029905D01*
X001417Y029949D01*
X001445Y029990D01*
X001477Y030029D01*
X001511Y030066D01*
X001548Y030100D01*
X001588Y030130D01*
X001630Y030157D01*
X001674Y030181D01*
X001720Y030202D01*
X001767Y030218D01*
X001815Y030231D01*
X001865Y030240D01*
X001914Y030245D01*
X001965Y030246D01*
X002015Y030243D01*
X002064Y030236D01*
X002113Y030225D01*
X002161Y030210D01*
X002207Y030192D01*
X002252Y030170D01*
X002295Y030144D01*
X002336Y030115D01*
X002375Y030083D01*
X002411Y030048D01*
X002443Y030010D01*
X002473Y029970D01*
X002500Y029927D01*
X002523Y029883D01*
X002542Y029837D01*
X002558Y029789D01*
X002570Y029740D01*
X002578Y029691D01*
X002582Y029641D01*
X002582Y029591D01*
X002578Y029541D01*
X002570Y029492D01*
X002558Y029443D01*
X002542Y029395D01*
X002523Y029349D01*
X002500Y029305D01*
X002473Y029262D01*
X002443Y029222D01*
X002411Y029184D01*
X002375Y029149D01*
X002336Y029117D01*
X002295Y029088D01*
X002252Y029062D01*
X002207Y029040D01*
X002161Y029022D01*
X002113Y029007D01*
X002064Y028996D01*
X002015Y028989D01*
X001965Y028986D01*
X001914Y028987D01*
X001865Y028992D01*
X001815Y029001D01*
X001767Y029014D01*
X001720Y029030D01*
X001674Y029051D01*
X001630Y029075D01*
X001588Y029102D01*
X001548Y029132D01*
X001511Y029166D01*
X001477Y029203D01*
X001445Y029242D01*
X001417Y029283D01*
X001392Y029327D01*
X001371Y029372D01*
X001354Y029419D01*
X001340Y029467D01*
X001330Y029516D01*
X001324Y029566D01*
X001322Y029616D01*
X001912Y031269D02*
X001984Y031267D01*
X002056Y031261D01*
X002128Y031252D01*
X002199Y031239D01*
X002269Y031222D01*
X002338Y031202D01*
X002406Y031177D01*
X002472Y031150D01*
X002538Y031119D01*
X002601Y031084D01*
X002663Y031047D01*
X002722Y031006D01*
X002779Y030962D01*
X002834Y030915D01*
X002886Y030865D01*
X002936Y030813D01*
X002983Y030758D01*
X003027Y030701D01*
X003068Y030642D01*
X003105Y030580D01*
X003140Y030517D01*
X003171Y030451D01*
X003198Y030385D01*
X003223Y030317D01*
X003243Y030248D01*
X003260Y030178D01*
X003273Y030107D01*
X003282Y030035D01*
X003288Y029963D01*
X003290Y029891D01*
X001912Y031269D02*
X001842Y031267D01*
X001772Y031261D01*
X001702Y031252D01*
X001633Y031239D01*
X001564Y031222D01*
X001497Y031201D01*
X001431Y031177D01*
X001367Y031149D01*
X001304Y031118D01*
X001242Y031083D01*
X001183Y031045D01*
X001126Y031004D01*
X001071Y030960D01*
X001019Y030913D01*
X000969Y030863D01*
X000922Y030811D01*
X000878Y030756D01*
X000837Y030699D01*
X000799Y030640D01*
X000764Y030578D01*
X000733Y030515D01*
X000705Y030451D01*
X000681Y030385D01*
X000660Y030318D01*
X000643Y030249D01*
X000630Y030180D01*
X000621Y030110D01*
X000615Y030040D01*
X000613Y029970D01*
X000613Y027293D01*
X000141Y027293D01*
X000239Y005403D01*
X000475Y005403D01*
X000475Y003198D01*
X001184Y003238D02*
X001186Y003288D01*
X001192Y003338D01*
X001202Y003387D01*
X001216Y003435D01*
X001233Y003482D01*
X001254Y003527D01*
X001279Y003571D01*
X001307Y003612D01*
X001339Y003651D01*
X001373Y003688D01*
X001410Y003722D01*
X001450Y003752D01*
X001492Y003779D01*
X001536Y003803D01*
X001582Y003824D01*
X001629Y003840D01*
X001677Y003853D01*
X001727Y003862D01*
X001776Y003867D01*
X001827Y003868D01*
X001877Y003865D01*
X001926Y003858D01*
X001975Y003847D01*
X002023Y003832D01*
X002069Y003814D01*
X002114Y003792D01*
X002157Y003766D01*
X002198Y003737D01*
X002237Y003705D01*
X002273Y003670D01*
X002305Y003632D01*
X002335Y003592D01*
X002362Y003549D01*
X002385Y003505D01*
X002404Y003459D01*
X002420Y003411D01*
X002432Y003362D01*
X002440Y003313D01*
X002444Y003263D01*
X002444Y003213D01*
X002440Y003163D01*
X002432Y003114D01*
X002420Y003065D01*
X002404Y003017D01*
X002385Y002971D01*
X002362Y002927D01*
X002335Y002884D01*
X002305Y002844D01*
X002273Y002806D01*
X002237Y002771D01*
X002198Y002739D01*
X002157Y002710D01*
X002114Y002684D01*
X002069Y002662D01*
X002023Y002644D01*
X001975Y002629D01*
X001926Y002618D01*
X001877Y002611D01*
X001827Y002608D01*
X001776Y002609D01*
X001727Y002614D01*
X001677Y002623D01*
X001629Y002636D01*
X001582Y002652D01*
X001536Y002673D01*
X001492Y002697D01*
X001450Y002724D01*
X001410Y002754D01*
X001373Y002788D01*
X001339Y002825D01*
X001307Y002864D01*
X001279Y002905D01*
X001254Y002949D01*
X001233Y002994D01*
X001216Y003041D01*
X001202Y003089D01*
X001192Y003138D01*
X001186Y003188D01*
X001184Y003238D01*
X000475Y003198D02*
X000477Y003126D01*
X000483Y003054D01*
X000492Y002982D01*
X000505Y002911D01*
X000522Y002841D01*
X000542Y002772D01*
X000567Y002704D01*
X000594Y002638D01*
X000625Y002572D01*
X000660Y002509D01*
X000697Y002447D01*
X000738Y002388D01*
X000782Y002331D01*
X000829Y002276D01*
X000879Y002224D01*
X000931Y002174D01*
X000986Y002127D01*
X001043Y002083D01*
X001102Y002042D01*
X001164Y002005D01*
X001227Y001970D01*
X001293Y001939D01*
X001359Y001912D01*
X001427Y001887D01*
X001496Y001867D01*
X001566Y001850D01*
X001637Y001837D01*
X001709Y001828D01*
X001781Y001822D01*
X001853Y001820D01*
X023467Y006348D02*
X023469Y006379D01*
X023475Y006410D01*
X023484Y006440D01*
X023497Y006469D01*
X023514Y006496D01*
X023534Y006520D01*
X023556Y006542D01*
X023582Y006561D01*
X023609Y006577D01*
X023638Y006589D01*
X023668Y006598D01*
X023699Y006603D01*
X023731Y006604D01*
X023762Y006601D01*
X023793Y006594D01*
X023823Y006584D01*
X023851Y006570D01*
X023877Y006552D01*
X023901Y006532D01*
X023922Y006508D01*
X023941Y006483D01*
X023956Y006455D01*
X023967Y006426D01*
X023975Y006395D01*
X023979Y006364D01*
X023979Y006332D01*
X023975Y006301D01*
X023967Y006270D01*
X023956Y006241D01*
X023941Y006213D01*
X023922Y006188D01*
X023901Y006164D01*
X023877Y006144D01*
X023851Y006126D01*
X023823Y006112D01*
X023793Y006102D01*
X023762Y006095D01*
X023731Y006092D01*
X023699Y006093D01*
X023668Y006098D01*
X023638Y006107D01*
X023609Y006119D01*
X023582Y006135D01*
X023556Y006154D01*
X023534Y006176D01*
X023514Y006200D01*
X023497Y006227D01*
X023484Y006256D01*
X023475Y006286D01*
X023469Y006317D01*
X023467Y006348D01*
X023704Y008277D02*
X023706Y008308D01*
X023712Y008339D01*
X023721Y008369D01*
X023734Y008398D01*
X023751Y008425D01*
X023771Y008449D01*
X023793Y008471D01*
X023819Y008490D01*
X023846Y008506D01*
X023875Y008518D01*
X023905Y008527D01*
X023936Y008532D01*
X023968Y008533D01*
X023999Y008530D01*
X024030Y008523D01*
X024060Y008513D01*
X024088Y008499D01*
X024114Y008481D01*
X024138Y008461D01*
X024159Y008437D01*
X024178Y008412D01*
X024193Y008384D01*
X024204Y008355D01*
X024212Y008324D01*
X024216Y008293D01*
X024216Y008261D01*
X024212Y008230D01*
X024204Y008199D01*
X024193Y008170D01*
X024178Y008142D01*
X024159Y008117D01*
X024138Y008093D01*
X024114Y008073D01*
X024088Y008055D01*
X024060Y008041D01*
X024030Y008031D01*
X023999Y008024D01*
X023968Y008021D01*
X023936Y008022D01*
X023905Y008027D01*
X023875Y008036D01*
X023846Y008048D01*
X023819Y008064D01*
X023793Y008083D01*
X023771Y008105D01*
X023751Y008129D01*
X023734Y008156D01*
X023721Y008185D01*
X023712Y008215D01*
X023706Y008246D01*
X023704Y008277D01*
X029412Y008277D02*
X029414Y008308D01*
X029420Y008339D01*
X029429Y008369D01*
X029442Y008398D01*
X029459Y008425D01*
X029479Y008449D01*
X029501Y008471D01*
X029527Y008490D01*
X029554Y008506D01*
X029583Y008518D01*
X029613Y008527D01*
X029644Y008532D01*
X029676Y008533D01*
X029707Y008530D01*
X029738Y008523D01*
X029768Y008513D01*
X029796Y008499D01*
X029822Y008481D01*
X029846Y008461D01*
X029867Y008437D01*
X029886Y008412D01*
X029901Y008384D01*
X029912Y008355D01*
X029920Y008324D01*
X029924Y008293D01*
X029924Y008261D01*
X029920Y008230D01*
X029912Y008199D01*
X029901Y008170D01*
X029886Y008142D01*
X029867Y008117D01*
X029846Y008093D01*
X029822Y008073D01*
X029796Y008055D01*
X029768Y008041D01*
X029738Y008031D01*
X029707Y008024D01*
X029676Y008021D01*
X029644Y008022D01*
X029613Y008027D01*
X029583Y008036D01*
X029554Y008048D01*
X029527Y008064D01*
X029501Y008083D01*
X029479Y008105D01*
X029459Y008129D01*
X029442Y008156D01*
X029429Y008185D01*
X029420Y008215D01*
X029414Y008246D01*
X029412Y008277D01*
X029648Y006348D02*
X029650Y006379D01*
X029656Y006410D01*
X029665Y006440D01*
X029678Y006469D01*
X029695Y006496D01*
X029715Y006520D01*
X029737Y006542D01*
X029763Y006561D01*
X029790Y006577D01*
X029819Y006589D01*
X029849Y006598D01*
X029880Y006603D01*
X029912Y006604D01*
X029943Y006601D01*
X029974Y006594D01*
X030004Y006584D01*
X030032Y006570D01*
X030058Y006552D01*
X030082Y006532D01*
X030103Y006508D01*
X030122Y006483D01*
X030137Y006455D01*
X030148Y006426D01*
X030156Y006395D01*
X030160Y006364D01*
X030160Y006332D01*
X030156Y006301D01*
X030148Y006270D01*
X030137Y006241D01*
X030122Y006213D01*
X030103Y006188D01*
X030082Y006164D01*
X030058Y006144D01*
X030032Y006126D01*
X030004Y006112D01*
X029974Y006102D01*
X029943Y006095D01*
X029912Y006092D01*
X029880Y006093D01*
X029849Y006098D01*
X029819Y006107D01*
X029790Y006119D01*
X029763Y006135D01*
X029737Y006154D01*
X029715Y006176D01*
X029695Y006200D01*
X029678Y006227D01*
X029665Y006256D01*
X029656Y006286D01*
X029650Y006317D01*
X029648Y006348D01*
X039038Y029931D02*
X039036Y030003D01*
X039030Y030075D01*
X039021Y030147D01*
X039008Y030218D01*
X038991Y030288D01*
X038971Y030357D01*
X038946Y030425D01*
X038919Y030491D01*
X038888Y030557D01*
X038853Y030620D01*
X038816Y030682D01*
X038775Y030741D01*
X038731Y030798D01*
X038684Y030853D01*
X038634Y030905D01*
X038582Y030955D01*
X038527Y031002D01*
X038470Y031046D01*
X038411Y031087D01*
X038349Y031124D01*
X038286Y031159D01*
X038220Y031190D01*
X038154Y031217D01*
X038086Y031242D01*
X038017Y031262D01*
X037947Y031279D01*
X037876Y031292D01*
X037804Y031301D01*
X037732Y031307D01*
X037660Y031309D01*
X037660Y031308D02*
X037590Y031306D01*
X037520Y031300D01*
X037450Y031291D01*
X037381Y031278D01*
X037312Y031261D01*
X037245Y031240D01*
X037179Y031216D01*
X037115Y031188D01*
X037052Y031157D01*
X036990Y031122D01*
X036931Y031084D01*
X036874Y031043D01*
X036819Y030999D01*
X036767Y030952D01*
X036717Y030902D01*
X036670Y030850D01*
X036626Y030795D01*
X036585Y030738D01*
X036547Y030679D01*
X036512Y030617D01*
X036481Y030554D01*
X036453Y030490D01*
X036429Y030424D01*
X036408Y030357D01*
X036391Y030288D01*
X036378Y030219D01*
X036369Y030149D01*
X036363Y030079D01*
X036361Y030009D01*
D11*
X037739Y029694D03*
X038152Y003120D03*
X001814Y003238D03*
X001952Y029616D03*
D12*
X008137Y026297D03*
X009137Y026297D03*
X010137Y026297D03*
X011137Y026297D03*
X012137Y026297D03*
X013137Y026297D03*
X014137Y026297D03*
X015137Y026297D03*
X016137Y026297D03*
X017137Y026297D03*
X018137Y026297D03*
X019137Y026297D03*
X020137Y026297D03*
X021137Y026297D03*
X022137Y026297D03*
X023137Y026297D03*
X024137Y026297D03*
X025137Y026297D03*
X026137Y026297D03*
X027137Y026297D03*
X028137Y026297D03*
X029137Y026297D03*
X030137Y026297D03*
X030137Y025297D03*
X029137Y025297D03*
X028137Y025297D03*
X027137Y025297D03*
X026137Y025297D03*
X025137Y025297D03*
X024137Y025297D03*
X023137Y025297D03*
X022137Y025297D03*
X021137Y025297D03*
X020137Y025297D03*
X019137Y025297D03*
X018137Y025297D03*
X017137Y025297D03*
X016137Y025297D03*
X015137Y025297D03*
X014137Y025297D03*
X013137Y025297D03*
X012137Y025297D03*
X011137Y025297D03*
X010137Y025297D03*
X009137Y025297D03*
X008137Y025297D03*
X008180Y007439D03*
X009180Y007439D03*
X010180Y007439D03*
X011180Y007439D03*
X012180Y007439D03*
X013180Y007439D03*
X014180Y007439D03*
X015180Y007439D03*
X016180Y007439D03*
X017180Y007439D03*
X017180Y006439D03*
X016180Y006439D03*
X015180Y006439D03*
X014180Y006439D03*
X013180Y006439D03*
X012180Y006439D03*
X011180Y006439D03*
X010180Y006439D03*
X009180Y006439D03*
X008180Y006439D03*
D13*
X013993Y020952D03*
X013993Y021452D03*
X013993Y021952D03*
X013993Y022452D03*
X015933Y022452D03*
X015933Y021952D03*
X015933Y021452D03*
X015933Y020952D03*
D14*
X015928Y020364D03*
X015416Y020364D03*
X016755Y021939D03*
X016755Y022450D03*
X017267Y022450D03*
X017267Y021939D03*
X013093Y021466D03*
X012582Y021466D03*
X012582Y020954D03*
X013093Y020954D03*
X013093Y022450D03*
X012582Y022450D03*
D15*
X019334Y021927D03*
X019334Y020927D03*
X022719Y020927D03*
X022719Y021927D03*
D16*
X013192Y018198D03*
X013192Y017411D03*
X013192Y016072D03*
X013192Y015285D03*
X013192Y013868D03*
X013192Y013080D03*
X013192Y011781D03*
X013192Y010994D03*
D17*
X014452Y011191D03*
X016971Y011191D03*
X016971Y013277D03*
X014452Y013277D03*
X014491Y015482D03*
X017011Y015482D03*
X017050Y017608D03*
X014530Y017608D03*
D18*
X030987Y007893D03*
X031145Y007893D03*
X031302Y007893D03*
X031460Y007893D03*
X031617Y007893D03*
X031774Y007893D03*
X031932Y007893D03*
X032089Y007893D03*
X032247Y007893D03*
X032404Y007893D03*
X032562Y007893D03*
X032719Y007893D03*
X032877Y007893D03*
X033034Y007893D03*
X033192Y007893D03*
X033349Y007893D03*
X033507Y007893D03*
X033664Y007893D03*
X033822Y007893D03*
X033979Y007893D03*
X034137Y007893D03*
X034294Y007893D03*
X034452Y007893D03*
X034609Y007893D03*
X034767Y007893D03*
X034924Y007893D03*
X035082Y007893D03*
X035239Y007893D03*
X035397Y007893D03*
X035554Y007893D03*
X035554Y007204D03*
X035397Y007204D03*
X035239Y007204D03*
X035082Y007204D03*
X034924Y007204D03*
X034767Y007204D03*
X034609Y007204D03*
X034452Y007204D03*
X034294Y007204D03*
X034137Y007204D03*
X033979Y007204D03*
X033822Y007204D03*
X033664Y007204D03*
X033507Y007204D03*
X033349Y007204D03*
X033192Y007204D03*
X033034Y007204D03*
X032877Y007204D03*
X032719Y007204D03*
X032562Y007204D03*
X032404Y007204D03*
X032247Y007204D03*
X032089Y007204D03*
X031932Y007204D03*
X031774Y007204D03*
X031617Y007204D03*
X031460Y007204D03*
X031302Y007204D03*
X031145Y007204D03*
X030987Y007204D03*
D19*
X030672Y007326D03*
X030672Y007771D03*
X035869Y007771D03*
X035869Y007326D03*
D20*
X028586Y008651D03*
X028389Y008651D03*
X028192Y008651D03*
X027995Y008651D03*
X027798Y008651D03*
X027601Y008651D03*
X027404Y008651D03*
X027208Y008651D03*
X027011Y008651D03*
X026814Y008651D03*
X026617Y008651D03*
X026420Y008651D03*
X026223Y008651D03*
X026026Y008651D03*
X025830Y008651D03*
X025633Y008651D03*
X025436Y008651D03*
X025239Y008651D03*
X025042Y008651D03*
D21*
X023960Y008277D03*
X023723Y006348D03*
X029904Y006348D03*
X029668Y008277D03*
D22*
X034412Y020108D03*
X034412Y020620D03*
X034924Y020620D03*
X034924Y020108D03*
X033271Y023257D03*
X033271Y023769D03*
X032601Y023769D03*
X032601Y023257D03*
X034786Y024557D03*
X034786Y025069D03*
X028152Y022194D03*
X028152Y021683D03*
X027601Y021683D03*
X027601Y022194D03*
X027129Y022155D03*
X026499Y022155D03*
X026499Y021643D03*
X027129Y021643D03*
X025908Y021643D03*
X025436Y021722D03*
X025436Y022234D03*
X025908Y022155D03*
X024767Y022273D03*
X024767Y021761D03*
D23*
X033881Y021506D03*
X034137Y021506D03*
X034393Y021506D03*
X034649Y021506D03*
X034904Y021506D03*
X035160Y021506D03*
X035416Y021506D03*
X035416Y023789D03*
X035160Y023789D03*
X034904Y023789D03*
X034649Y023789D03*
X034393Y023789D03*
X034137Y023789D03*
X033881Y023789D03*
D24*
X037498Y024265D02*
X038098Y024265D01*
X038098Y023265D02*
X037498Y023265D01*
X037498Y022265D02*
X038098Y022265D01*
X038098Y021265D02*
X037498Y021265D01*
X037498Y020265D02*
X038098Y020265D01*
X038098Y025265D02*
X037498Y025265D01*
M02*
